<?xml version="1.0" encoding="iso-8859-1"?>
<!-- Generator: Adobe Illustrator 19.0.0, SVG Export Plug-In . SVG Version: 6.00 Build 0)  -->
<svg version="1.1" id="Capa_1" xmlns="http://www.w3.org/2000/svg" xmlns:xlink="http://www.w3.org/1999/xlink" x="0px" y="0px"
	 viewBox="0 0 512 512" style="enable-background:new 0 0 512 512;" xml:space="preserve">
<circle style="fill:#689BA6;" cx="418.133" cy="93.867" r="85.333"/>
<path style="fill:#D9415D;" d="M281.6,460.8H145.067c-23.552,0.026-42.641,19.115-42.667,42.667c0,4.71,3.823,8.533,8.533,8.533
	h204.8c4.71,0,8.533-3.823,8.533-8.533C324.241,479.915,305.152,460.826,281.6,460.8z"/>
<path style="fill:#E88D9E;" d="M196.267,349.867H230.4c4.71,0,8.533,3.823,8.533,8.533v110.933c0,4.71-3.823,8.533-8.533,8.533
	h-34.133c-4.71,0-8.533-3.823-8.533-8.533V358.4C187.733,353.69,191.556,349.867,196.267,349.867z"/>
<path style="fill:#2F5259;" d="M418.133,0c-48.503,0.068-88.977,37.035-93.431,85.333h-0.435V102.4h90.018l55.518,48.119
	c-14.089,12.945-32.529,20.139-51.669,20.147v17.067c51.84,0,93.867-42.027,93.867-93.867S469.973,0,418.133,0z M426.667,17.57
	c14.404,1.604,28.049,7.279,39.347,16.35l-39.347,39.347V17.57z M409.6,75.742l-43.785-37.939
	c12.032-11.29,27.392-18.389,43.785-20.233V75.742z M494.43,85.333h-55.697l39.347-39.347
	C487.151,57.284,492.826,70.929,494.43,85.333z M494.43,102.4c-1.417,12.698-5.999,24.841-13.329,35.311L440.32,102.4H494.43z
	 M341.837,85.333c1.374-12.416,5.769-24.303,12.8-34.62l39.962,34.62H341.837z"/>
<path style="fill:#E88D9E;" d="M8.533,85.333h409.6c4.71,0,8.533,3.823,8.533,8.533V128c0,4.71-3.823,8.533-8.533,8.533H8.533
	C3.823,136.533,0,132.71,0,128V93.867C0,89.156,3.823,85.333,8.533,85.333z"/>
<path style="fill:#F1BBC5;" d="M426.667,119.467H0V166.4c0.299,40.201,33.007,72.602,73.207,72.533
	c30.097,0.401,54.391,24.695,54.793,54.793c-0.068,40.201,32.333,72.909,72.533,73.207h25.6
	c40.201-0.299,72.602-33.007,72.533-73.207c0.401-30.097,24.695-54.391,54.793-54.793c40.209,0.051,72.909-32.375,73.207-72.585
	V119.467z"/>
<g>
	<rect x="51.2" y="170.667" style="fill:#D9415D;" width="17.067" height="17.067"/>
	<rect x="162.133" y="213.333" style="fill:#D9415D;" width="17.067" height="17.067"/>
	<rect x="256" y="153.6" style="fill:#D9415D;" width="17.067" height="17.067"/>
	<rect x="341.333" y="170.667" style="fill:#D9415D;" width="17.067" height="17.067"/>
	<rect x="204.8" y="298.667" style="fill:#D9415D;" width="17.067" height="17.067"/>
</g>
<path d="M511.565,85.333c-4.173-45.047-39.851-80.725-84.898-84.898V0H409.6v0.435c-45.047,4.173-80.725,39.851-84.898,84.898H8.533
	C3.823,85.333,0,89.156,0,93.867V166.4c0.051,40.038,32.495,72.482,72.533,72.533c30.618,0.034,55.433,24.849,55.467,55.467
	c0.06,35.089,25.207,65.109,59.733,71.33v95.07h-42.667c-23.552,0.026-42.641,19.115-42.667,42.667c0,4.71,3.823,8.533,8.533,8.533
	h204.8c4.71,0,8.533-3.823,8.533-8.533c-0.026-23.552-19.115-42.641-42.667-42.667h-42.667v-95.07
	c34.526-6.221,59.674-36.241,59.733-71.33c0.034-30.618,24.849-55.433,55.467-55.467c31.932-0.043,60.083-20.932,69.393-51.473
	c46.345-2.688,83.763-38.835,88.038-85.06H512V85.333H511.565z M494.43,85.333h-55.697l39.347-39.347
	C487.151,57.284,492.826,70.929,494.43,85.333z M466.014,33.92l-39.347,39.347V17.57C441.071,19.174,454.716,24.849,466.014,33.92z
	 M409.6,75.742l-43.785-37.939c12.032-11.29,27.392-18.389,43.785-20.233V75.742z M354.645,50.714l39.953,34.62h-52.762
	C343.211,72.917,347.605,61.03,354.645,50.714z M17.067,102.4H409.6v17.067H17.067V102.4z M305.741,494.933H120.926
	c3.627-10.223,13.295-17.05,24.141-17.067H281.6C292.446,477.884,302.114,484.71,305.741,494.933z M204.8,460.8v-93.867h17.067
	V460.8H204.8z M354.133,221.867c-40.038,0.051-72.482,32.495-72.533,72.533c-0.034,30.618-24.849,55.433-55.467,55.467h-25.6
	c-30.618-0.034-55.433-24.849-55.467-55.467c-0.051-40.038-32.495-72.482-72.533-72.533c-30.618-0.034-55.433-24.849-55.467-55.467
	v-29.867H409.6V166.4C409.566,197.018,384.751,221.833,354.133,221.867z M426.667,166.4v-53.274l43.145,37.393
	c-11.981,10.999-27.162,17.894-43.332,19.678C426.539,168.96,426.667,167.68,426.667,166.4z M481.101,137.711L440.32,102.4h54.076
	C492.988,115.098,488.422,127.241,481.101,137.711z"/>
<g>
</g>
<g>
</g>
<g>
</g>
<g>
</g>
<g>
</g>
<g>
</g>
<g>
</g>
<g>
</g>
<g>
</g>
<g>
</g>
<g>
</g>
<g>
</g>
<g>
</g>
<g>
</g>
<g>
</g>
</svg>
