<?xml version="1.0" encoding="iso-8859-1"?>
<!-- Generator: Adobe Illustrator 19.0.0, SVG Export Plug-In . SVG Version: 6.00 Build 0)  -->
<svg version="1.1" id="Capa_1" xmlns="http://www.w3.org/2000/svg" xmlns:xlink="http://www.w3.org/1999/xlink" x="0px" y="0px"
	 viewBox="0 0 464.43 464.43" style="enable-background:new 0 0 464.43 464.43;" xml:space="preserve">
<path style="fill:#FFFFFF;" d="M182.815,453.2c-7.2,0-14-2.4-19.2-7.2c-5.2-4.8-8.8-11.6-9.2-18.8l-2.4-24.8h160.8l-2.4,24.8
	c-0.8,7.2-4,14-9.2,18.8s-12,7.2-19.2,7.2H182.815z"/>
<polygon style="fill:#E577AA;" points="151.215,397.6 137.215,262 326.815,262 312.815,397.6 "/>
<polygon style="fill:#FFFFFF;" points="136.815,257.2 131.615,206.4 332.415,206.4 327.215,257.2 "/>
<path style="fill:#E577AA;" d="M121.615,201.6c-8.8,0-15.6-7.2-15.6-15.6c0-8.8,7.2-15.6,15.6-15.6h221.2c8.8,0,15.6,7.2,15.6,15.6
	c0,8.8-7.2,15.6-15.6,15.6H121.615z"/>
<path style="fill:#FFFFFF;" d="M329.215,165.2h-194.4l0.8-6.8c2-17.2,10-32.8,22-44.8c14.4-14.4,33.6-22.4,54-22.4h23.2l-7.6,12
	c-0.4,1.2,0,2.8,1.2,3.2c0.8,0.4,2,0,2.8-0.8l9.2-14.4h12c20.4,0,39.6,8,54,22.4c12,12,20,28,22,44.8L329.215,165.2z"/>
<g>
	<path style="fill:#CAC9C9;" d="M180.015,113.6c14.4-14.4,33.6-22.4,54-22.4h-22.4c-20.4,0-39.6,8-54,22.4c-12,12-20,28-22,44.8
		l-0.8,6.8h22.8l0.8-6.8C160.415,141.6,168.015,126,180.015,113.6z"/>
	<path style="fill:#CAC9C9;" d="M187.615,399.2h-40.4l2.4,26.8c0.8,8.4,4.4,16,10.4,22c5.6,5.6,13.2,8.4,21.2,8.4h6.8L187.615,399.2
		z"/>
</g>
<polygon style="fill:#C56B9A;" points="150.815,400 187.615,400 187.615,259.6 136.015,259.6 "/>
<polygon style="fill:#CAC9C9;" points="134.815,259.6 187.615,259.6 187.615,204 130.415,204 "/>
<path style="fill:#C56B9A;" d="M122.815,201.6h64.8v-31.2h-73.6c-3.2,0-6,2-7.6,4.8c-4.4,6.8-4.4,15.2,0,22c1.6,2.8,4.4,4.4,7.6,4.8
	L122.815,201.6z"/>
<path style="fill:#493C33;" d="M158.015,408.8l2,18c0.4,5.6,3.2,10.8,7.2,14.8c4,3.6,9.6,5.6,15.2,5.6h98.8c5.6,0,11.2-2,15.2-5.6
	c4.4-4,6.8-9.2,7.6-14.8l2-18H158.015z M144.015,268l12.4,124h150.8l12.8-124H144.015z M342.415,176h-220.8c-5.2,0-9.6,4.4-9.6,9.6
	c0,5.2,4.4,9.6,9.6,9.6h221.2c5.2,0,9.6-4.4,9.6-9.6S348.015,176.4,342.415,176z M234.415,80l49.2-76c1.6-2.4,4-4,7.2-4h56
	c4.8,0,8.4,3.6,8.4,8.4s-3.6,8.4-8.4,8.4l0,0h-51.6l-40.8,63.6c44.4,1.2,80.8,34.8,85.2,79.2h3.2c14.8,0,26.4,12,26.4,26.4
	c0,14.8-12,26.4-26.4,26.4l0,0l-4.8,48l0,0l-14,139.2v1.2c0,0.4,0,0.8,0,1.2l-2.8,26.8c-0.8,10-5.6,18.8-12.8,25.6
	c-7.2,6.8-16.8,10.4-26.8,10h-98.8c-10,0-19.2-3.6-26.8-10c-7.2-6.8-12-16-12.8-25.6l-2.8-27.2l0,0l-14-140c0-0.4,0-0.8,0-1.2
	l-4.8-47.2l0,0c-14.8,0-26.4-12-26.4-26.4c0-14.8,12-26.4,26.4-26.4h3.2c4.4-44.8,42-78.8,87.2-78.8L234.415,80z M236.015,108.8
	c-2.8,3.6-8,4.4-11.6,1.6c-3.2-2.4-4.4-6.8-2.4-10.4l1.6-2.8h-12c-35.6,0-65.6,26.8-70,62h181.2c-4.8-35.2-34.8-62-70.4-62h-8.8
	L236.015,108.8z M138.415,212.4l4,38.8h179.2l4-38.8L138.415,212.4L138.415,212.4z"/>
<g>
</g>
<g>
</g>
<g>
</g>
<g>
</g>
<g>
</g>
<g>
</g>
<g>
</g>
<g>
</g>
<g>
</g>
<g>
</g>
<g>
</g>
<g>
</g>
<g>
</g>
<g>
</g>
<g>
</g>
</svg>
