<?xml version="1.0" encoding="iso-8859-1"?>
<!-- Generator: Adobe Illustrator 19.0.0, SVG Export Plug-In . SVG Version: 6.00 Build 0)  -->
<svg version="1.1" id="Capa_1" xmlns="http://www.w3.org/2000/svg" xmlns:xlink="http://www.w3.org/1999/xlink" x="0px" y="0px"
	 viewBox="0 0 512 512" style="enable-background:new 0 0 512 512;" xml:space="preserve">
<path style="fill:#DD352E;" d="M79.448,17.655L79.448,17.655c0,9.754,7.901,17.655,17.655,17.655h52.966v79.448h35.31V35.31V17.655
	l0,0c0-9.754-7.9-17.655-17.655-17.655H97.103C87.349,0,79.448,7.901,79.448,17.655z"/>
<path style="fill:#ED8A19;" d="M361.931,512H114.759c-9.754,0-17.655-7.91-17.655-17.655V123.586c0-9.754,7.91-17.655,17.655-17.655
	h247.172V512z"/>
<path style="fill:#C5411E;" d="M414.897,512h-52.966V105.931h52.966c9.754,0,17.655,7.91,17.655,17.655v370.759
	C432.552,504.09,424.642,512,414.897,512z"/>
<rect x="97.1" y="176.55" style="fill:#EBBA16;" width="264.83" height="264.83"/>
<path style="fill:#DC691D;" d="M298.266,322.445c-3.363-13.347-10.893-24.62-21.018-32.962l-3.999-3.037
	c-16.287-11.467-38.047-15.969-59.807-10.452c-37.967,9.622-61.555,46.009-52.674,81.276c8.881,35.266,46.857,56.064,84.824,46.442
	S307.147,357.711,298.266,322.445z"/>
<path style="fill:#B5521C;" d="M229.517,406.069c-4.873,0-8.828-3.955-8.828-8.828c0-4.873,3.955-8.828,8.828-8.828
	c8.527,0,18.211-0.733,24.117-14.972c6.638-16.022,8.015-37.517-3.875-49.408c-3.452-3.452-3.452-9.031,0-12.482
	c3.443-3.452,9.039-3.452,12.482,0c18.856,18.856,15.934,48.764,7.698,68.643C261.076,401.602,245.583,406.069,229.517,406.069z"/>
<path style="fill:#23A24D;" d="M229.517,273.655L229.517,273.655L229.517,273.655c0-29.255,23.711-52.966,52.966-52.966l0,0l0,0
	C282.483,249.944,258.772,273.655,229.517,273.655z"/>
<g>
	<path style="fill:#ED8A19;" d="M388.414,105.931v44.138c0,4.882,3.955,8.828,8.828,8.828c4.873,0,8.828-3.946,8.828-8.828v-44.138
		H388.414z"/>
	<path style="fill:#ED8A19;" d="M397.241,176.552c-4.873,0-8.828,3.946-8.828,8.828V512h17.655V185.379
		C406.069,180.498,402.114,176.552,397.241,176.552z"/>
</g>
<g>
</g>
<g>
</g>
<g>
</g>
<g>
</g>
<g>
</g>
<g>
</g>
<g>
</g>
<g>
</g>
<g>
</g>
<g>
</g>
<g>
</g>
<g>
</g>
<g>
</g>
<g>
</g>
<g>
</g>
</svg>
