<?xml version="1.0" encoding="utf-8"?>
<!-- Generator: Adobe Illustrator 19.0.0, SVG Export Plug-In . SVG Version: 6.00 Build 0)  -->
<svg version="1.1" xmlns="http://www.w3.org/2000/svg" xmlns:xlink="http://www.w3.org/1999/xlink" x="0px" y="0px"
	 viewBox="0 0 250.8 250.8" style="enable-background:new 0 0 250.8 250.8;" xml:space="preserve">
<style type="text/css">
	.st0{fill:#00A19A;}
	.st1{fill:#F08829;}
	.st2{fill:#FFFFFF;}
	.st3{fill:#85BE94;}
	.st4{fill:#402E21;}
</style>
<g id="Lager_2">
	<circle id="XMLID_8_" class="st0" cx="125.4" cy="125.4" r="125.4"/>
</g>
<g id="Lager_1">
	<g id="XMLID_10_">
		<g id="XMLID_18_">
			<path id="XMLID_7_" class="st1" d="M119.3,87.6c0.6,1,8.1,13.2,16.7,28.6l-11.3,7.5c-1.8,1.2-3.2,2.5-2,4.3
				c1.2,1.8,3.7,2.3,5.5,1l10.7-7.1c5.4,9.9,10.5,19.9,16.1,31.6l-7.2,4.8c-1.8,1.2-2.2,4-1,5.8c1.2,1.8,3.1,1.4,4.9,0.1l6.7-4.2
				c5.8,13,12.3,27.9,14.2,39c-12.7-10.4-30.6-29.9-43.5-45l-3.4,2.3l8.8-5.8c1.8-1.2,2.6-3.3,1.4-5.1s-3.4-1.9-5.3-0.7l-6,4
				c-7.2-8.7-19-24.5-23.6-30.4l8.3-5.5c1.8-1.2,4.2-0.9,2.6-3.3c-1.6-2.3-3.8-2.4-5.6-1.2l-8.7,5.8c-1.6-2.2-2.4-3.3-2.7-3.6
				c-1.7-2.6-0.8-7.2,2.5-11.8c0.1-0.1,2.3-3.6,7.7-7.2c4.4-3,9.5-4.2,9.6-4.2C114.7,87.4,117.2,86.9,119.3,87.6z"/>
			<path id="XMLID_6_" class="st1" d="M172.7,199.2c0.2,0.7,0.3,1.3,0.5,2C173.1,200.5,172.9,199.9,172.7,199.2z"/>
		</g>
		<g id="XMLID_15_">
			<path id="XMLID_5_" class="st2" d="M69,46.2c0.6-0.4,1.4-0.2,1.8,0.4l-1.4-2.2c-0.4-0.6-1.2-0.8-1.8-0.4
				c-0.6,0.4-0.8,1.2-0.4,1.8l1.4,2.2C68.2,47.4,68.4,46.6,69,46.2z"/>
			<path id="XMLID_4_" class="st3" d="M95.1,48.7c-0.3-0.1-0.8-0.2-1.1,1.1c-1.3,6.5,0.4,13.3,1.5,19.9c0.3,1.9-0.6,3.8-2.4,4.6
				c-1.8,0.8-3.9,0.2-4.9-1.4l-1.4-2.2L69.2,44.4c-0.4-0.6-1.2-0.8-1.8-0.4c-0.6,0.4-0.8,1.2-0.4,1.8l17.5,26.3l1.4,2.2
				c1.1,1.6,0.9,3.7-0.5,5.1c-1.4,1.3-3.5,1.5-5.1,0.4c-5.6-3.9-11.6-7-17.7-9.1c-0.4-0.1-1.3-0.3-1.5,0.6c0,0.1,0,0.1,0,0.2
				c0,0-0.1,0-0.1,0c9.6,3.4,18.5,9.2,26,16.9c1.9-1.9,4-3.7,6.4-5.3c2.4-1.6,4.9-2.9,7.3-3.9c-4.2-9.8-6.1-20.3-5.6-30.5
				c0,0,0,0.1,0,0.1C95.2,48.7,95.2,48.7,95.1,48.7z"/>
		</g>
		<path id="XMLID_11_" class="st4" d="M95.4,38.7c-2.5-0.5-5.1,0-7.2,1.5c-2.1,1.6-3.4,4-3.6,6.9c-0.1,1.8-0.2,3.6-0.2,5.4L76,39.9
			c-2.9-4.3-8.7-5.4-12.9-2.6c-4.3,2.9-5.4,8.7-2.6,12.9l8.4,12.6c-1.7-0.7-3.3-1.3-5-1.9c-2.7-0.9-5.4-0.7-7.7,0.7
			c-2.2,1.3-3.7,3.5-4.2,6c-0.9,4.8,1.8,9.6,6.5,11.3c8.8,3.2,17,8.6,23.7,15.8c-3.8,6.4-4.4,13.2-1,18.3c0,0,0.1,0.1,0.1,0.1
			c2.4,3.4,60.4,83.6,95.8,101.4c1.3,0.6,2.8,0.6,4-0.2c1.2-0.8,1.9-2.2,1.8-3.6c-2.8-39.5-54.5-123.8-56.7-127.4
			c0,0-0.1-0.1-0.1-0.1c-3.4-5.1-9.9-7.1-17.3-6.1c-4-9-5.9-18.6-5.4-28C103.5,44.1,100.2,39.8,95.4,38.7z M135.2,115l-11.3,7.5
			c-1.8,1.2-2.3,3.7-1.1,5.6c1.2,1.8,3.7,2.3,5.6,1.1l10.7-7.1c5.2,9.7,10.9,20.6,16.1,31.6l-7.2,4.8c-1.8,1.2-2.3,3.7-1.1,5.6
			s3.7,2.3,5.6,1.1l6.2-4.1c6.9,15.2,12.6,30.2,15,42.2c-14.6-9.9-32.2-28.4-47.7-46.4l8.8-5.8c1.8-1.2,2.3-3.7,1.1-5.6
			c-1.2-1.8-3.7-2.3-5.6-1.1l-9.5,6.4c-8.6-10.3-16.3-20.1-22.1-27.6l12-8c1.8-1.2,2.3-3.7,1.1-5.6c-1.2-1.8-3.7-2.3-5.6-1.1
			l-12.5,8.3c-3.5-4.6-5.6-7.6-6-8.1c-1.7-2.6-0.8-7.1,2.5-11.7c0.1-0.1,2.3-3.6,7.7-7.2c4.4-3,9.4-4.3,9.6-4.3
			c5.5-1.3,10-0.4,11.7,2.1C119.9,88.6,126.6,99.6,135.2,115z M59.8,69.1c0.1-0.8,1-0.7,1.5-0.6c6.2,2.1,12.2,5.1,17.8,9
			c1.6,1.1,3.7,0.9,5.1-0.4c1.4-1.3,1.6-3.5,0.5-5.1L67.1,45.8c-0.4-0.6-0.2-1.4,0.4-1.8c0.6-0.4,1.4-0.2,1.8,0.4l17.5,26.3
			c1.1,1.6,3.1,2.2,4.9,1.5c1.8-0.8,2.7-2.6,2.3-4.6C93,61,91.3,54.1,92.6,47.7c0.3-1.3,0.8-1.2,1.1-1.1c1,0.2,1.7,1.1,1.6,2.1
			c-0.5,10.2,1.4,20.6,5.6,30.5c-2.5,1-4.9,2.3-7.3,3.9c-2.4,1.6-4.6,3.4-6.4,5.3c-7.5-7.6-16.4-13.4-26-16.9
			C60.2,71.1,59.6,70.1,59.8,69.1z"/>
	</g>
</g>
</svg>
